<svg id="Camada_1" data-name="Camada 1" xmlns="http://www.w3.org/2000/svg" viewBox="0 0 810.85 841.89"><defs><style>.cls-1{fill:#171717;}.cls-2{font-size:31.3px;font-family:WildWorldBOLD, Wild World;}.cls-2,.cls-7{fill:#fff;}.cls-3{font-size:10.92px;font-family:Quicksand-Regular, Quicksand;letter-spacing:0.38em;}.cls-3,.cls-8{fill:#85acdb;}.cls-4{letter-spacing:0.37em;}.cls-5{letter-spacing:0.38em;}.cls-6{fill:#86acdb;}.cls-6,.cls-7{fill-rule:evenodd;}.cls-9{fill:#aadae3;}</style></defs><rect class="cls-1" x="215.58" width="595.28" height="841.89"/><text class="cls-2" transform="translate(343.49 115.83)">BRUNNO LORRAN</text><text class="cls-3" transform="translate(399.98 322.95)">F<tspan class="cls-4" x="10.29" y="0">R</tspan><tspan class="cls-5" x="21.61" y="0" xml:space="preserve">ONT-END    UI DESIGN</tspan></text><path class="cls-6" d="M323.21,114.5v1.17c-5.69,3.58-11.68,7.12-17.25,10.83l-6.57,4a8.37,8.37,0,0,1-2,.9,7.15,7.15,0,0,1-4.59-.19,6.6,6.6,0,0,1-3.26-2.67,5.88,5.88,0,0,1-.63-1.43,6.29,6.29,0,0,1,.73-5.2,14.13,14.13,0,0,1,4.89-4.46L311.6,107l1.08.6c1.43.81,2.92,1.64,4.52,2.5s3.09,1.64,4.87,2.54l1.14.59v1.28Zm-19.43,8.43,13.15-8.25-1.71-.91c-1.18-.63-2.35-1.27-3.53-1.93l-15,9.22a10.1,10.1,0,0,0-3.48,3,2.29,2.29,0,0,0-.29,1.91,1.71,1.71,0,0,0,.17.39,2.48,2.48,0,0,0,1.2,1,3.07,3.07,0,0,0,1.93.06,4.41,4.41,0,0,0,1-.45Z"/><path class="cls-6" d="M323.18,108.16l-19.4-12-6.57-4a4.41,4.41,0,0,0-1-.45,3.07,3.07,0,0,0-1.93.06,2.48,2.48,0,0,0-1.2,1,1.71,1.71,0,0,0-.17.39A2.29,2.29,0,0,0,293.2,95a10,10,0,0,0,3.48,3l.39.24c9,5.52,15.7,9.65,25,14.38l-1.9,3.74c-9.37-4.77-16.18-9-25.28-14.55l-.39-.24a14.13,14.13,0,0,1-4.89-4.46,6.29,6.29,0,0,1-.73-5.2,5.88,5.88,0,0,1,.63-1.43,6.65,6.65,0,0,1,3.26-2.67,7.15,7.15,0,0,1,4.59-.19,8.37,8.37,0,0,1,2,.9l6.57,4,17.35,10.75h-.1v4.79Z"/><path class="cls-7" d="M258.22,88.7V87.53c5.69-3.58,11.68-7.12,17.25-10.83l6.57-4a8.26,8.26,0,0,1,2-.9,7.11,7.11,0,0,1,4.58.19,6.61,6.61,0,0,1,3.26,2.67,5.88,5.88,0,0,1,.63,1.43,6.29,6.29,0,0,1-.73,5.2,14.13,14.13,0,0,1-4.89,4.46l-17.1,10.5-1.08-.6c-1.43-.81-2.92-1.64-4.52-2.5s-3.09-1.64-4.87-2.54L258.22,90V88.7Zm19.43-8.43-13.14,8.25,1.7.91c1.18.63,2.35,1.27,3.53,1.93l15-9.22a10.25,10.25,0,0,0,3.49-3,2.33,2.33,0,0,0,.28-1.91,1.71,1.71,0,0,0-.17-.39,2.48,2.48,0,0,0-1.2-1,3.06,3.06,0,0,0-1.93-.06,4.41,4.41,0,0,0-1,.45Z"/><path class="cls-7" d="M258.22,95l19.43,12,6.57,4a4,4,0,0,0,1,.44,3,3,0,0,0,1.93-.05,2.48,2.48,0,0,0,1.2-1,1.71,1.71,0,0,0,.17-.39,2.33,2.33,0,0,0-.28-1.91,10.25,10.25,0,0,0-3.49-3l-.38-.24c-9-5.52-15.71-9.65-25-14.38l1.9-3.74c9.37,4.77,16.18,9,25.28,14.55l.39.24a14.13,14.13,0,0,1,4.89,4.46,6.29,6.29,0,0,1,.73,5.2,5.88,5.88,0,0,1-.63,1.43,6.61,6.61,0,0,1-3.26,2.67,7.11,7.11,0,0,1-4.58.19,8.26,8.26,0,0,1-2-.9l-6.57-4L258.22,99.94Z"/><path class="cls-7" d="M511.79,321.43a1.77,1.77,0,1,0-1.77-1.76A1.77,1.77,0,0,0,511.79,321.43Z"/><circle class="cls-8" cx="27.8" cy="277.45" r="27.8"/><circle class="cls-1" cx="27.8" cy="204.87" r="27.8"/><circle class="cls-9" cx="27.8" cy="350.04" r="27.8"/></svg>